<svg width="8" height="8" viewBox="0 0 8 8" fill="none" xmlns="http://www.w3.org/2000/svg">
<path d="M7.97759 2.35065C7.95838 1.92472 7.88957 1.63329 7.79195 1.37869C7.68953 1.11608 7.55351 0.891903 7.33106 0.670929C7.10862 0.449955 6.88618 0.310645 6.62373 0.209765C6.36928 0.110487 6.07803 0.0432341 5.65235 0.0240189C5.22507 0.00480379 5.08904 0 4.00404 0C2.91743 0 2.78141 0.00480379 2.35573 0.0240189C1.93005 0.0432341 1.63879 0.112088 1.38434 0.209765C1.12029 0.312246 0.896251 0.448354 0.675409 0.670929C0.454568 0.893505 0.315341 1.11608 0.214522 1.37869C0.116904 1.63329 0.0480909 1.92472 0.0288873 2.35065C0.00968366 2.77819 0.00488276 2.9143 0.00488276 3.99995C0.00488276 5.08721 0.00968366 5.22332 0.0288873 5.64925C0.0480909 6.07519 0.116904 6.36662 0.214522 6.62122C0.316942 6.88383 0.452967 7.108 0.675409 7.32898C0.896251 7.55155 1.12029 7.68926 1.38274 7.79014C1.63719 7.88942 1.92845 7.95667 2.35413 7.97589C2.78141 7.9951 2.91743 7.99991 4.00244 7.99991C5.08904 7.99991 5.22507 7.9951 5.65075 7.97589C6.07643 7.95667 6.36768 7.88782 6.62213 7.79014C6.88458 7.68766 7.10862 7.55155 7.32946 7.32898C7.55031 7.1064 7.68953 6.88383 7.79035 6.62122C7.88957 6.36662 7.95678 6.07519 7.97599 5.64925C7.99519 5.22172 7.99999 5.08561 7.99999 3.99995C7.99999 2.9143 7.99679 2.77659 7.97759 2.35065ZM7.25905 5.61723C7.24145 6.00794 7.17584 6.22091 7.12142 6.36022C7.04941 6.54596 6.96139 6.68047 6.82057 6.82138C6.67974 6.96229 6.54692 7.04716 6.35968 7.12242C6.21885 7.17686 6.00601 7.24251 5.61714 7.26013C5.19626 7.27934 5.06984 7.28414 4.00084 7.28414C2.93183 7.28414 2.80541 7.27934 2.38453 7.26013C1.99406 7.24251 1.78122 7.17686 1.64199 7.12242C1.45636 7.05036 1.32193 6.96229 1.1811 6.82138C1.04028 6.68047 0.955462 6.54756 0.880248 6.36022C0.825838 6.2193 0.760225 6.00634 0.742622 5.61723C0.723418 5.1961 0.718617 5.0696 0.718617 3.99995C0.718617 2.93031 0.723418 2.80381 0.742622 2.38268C0.760225 1.99197 0.825838 1.779 0.880248 1.63969C0.952261 1.45395 1.04028 1.31944 1.1811 1.17853C1.32193 1.03762 1.45476 0.952751 1.64199 0.877492C1.78282 0.823049 1.99566 0.757397 2.38453 0.739783C2.80541 0.720568 2.93183 0.715764 4.00084 0.715764C5.06984 0.715764 5.19626 0.720568 5.61714 0.739783C6.00762 0.757397 6.22046 0.823049 6.35968 0.877492C6.54532 0.949549 6.67974 1.03762 6.82057 1.17853C6.96139 1.31944 7.04621 1.45235 7.12142 1.63969C7.17584 1.7806 7.24145 1.99357 7.25905 2.38268C7.27825 2.80381 7.28306 2.93031 7.28306 3.99995C7.28306 5.0696 7.27665 5.1961 7.25905 5.61723Z" fill="#626262"/>
<path d="M4.00084 1.94395C2.86463 1.94395 1.94605 2.86467 1.94605 3.99997C1.94605 5.13687 2.86623 6.05599 4.00084 6.05599C5.13545 6.05599 6.05563 5.13366 6.05563 3.99997C6.05563 2.86307 5.13705 1.94395 4.00084 1.94395ZM4.00084 5.33382C3.2647 5.33382 2.66779 4.73655 2.66779 3.99997C2.66779 3.26339 3.2647 2.66612 4.00084 2.66612C4.73698 2.66612 5.33389 3.26339 5.33389 3.99997C5.33389 4.73655 4.73698 5.33382 4.00084 5.33382Z" fill="#626262"/>
<path d="M6.13563 2.34429C6.40078 2.34429 6.61573 2.12921 6.61573 1.86391C6.61573 1.5986 6.40078 1.38353 6.13563 1.38353C5.87049 1.38353 5.65554 1.5986 5.65554 1.86391C5.65554 2.12921 5.87049 2.34429 6.13563 2.34429Z" fill="#626262"/>
<path d="M0 3.99995C0 5.08721 0.0048009 5.22332 0.0240045 5.64925C0.0432081 6.07519 0.112021 6.36662 0.20964 6.62122C0.312059 6.88383 0.448085 7.108 0.670526 7.32898C0.891368 7.54995 1.11541 7.68926 1.37786 7.79014C1.63231 7.88942 1.92356 7.95667 2.34924 7.97589C2.77652 7.9951 2.91255 7.99991 3.99755 7.99991C5.08416 7.99991 5.22018 7.9951 5.64586 7.97589C6.07154 7.95667 6.3628 7.88782 6.61725 7.79014C6.8797 7.68766 7.10374 7.55155 7.32458 7.32898C7.54542 7.108 7.68465 6.88383 7.78547 6.62122C7.88469 6.36662 7.9519 6.07519 7.9711 5.64925C7.99031 5.22172 7.99511 5.08561 7.99511 3.99995C7.99511 2.9127 7.99031 2.77659 7.9711 2.35065C7.9519 1.92472 7.88309 1.63329 7.78547 1.37869C7.68305 1.11608 7.54702 0.891903 7.32458 0.670929C7.10534 0.448354 6.8813 0.310645 6.61885 0.209765C6.3644 0.110487 6.07315 0.0432341 5.64746 0.0240189C5.22018 0.00480379 5.08416 0 3.99915 0C2.91255 0 2.77652 0.00480379 2.35084 0.0240189C1.92516 0.0432341 1.63391 0.112088 1.37946 0.209765C1.11701 0.312246 0.892968 0.448354 0.672127 0.670929C0.451285 0.893505 0.312059 1.11608 0.21124 1.37869C0.112021 1.63329 0.0432081 1.92472 0.0240045 2.35065C0.0048009 2.77659 0 2.9127 0 3.99995ZM0.721736 3.99995C0.721736 2.93191 0.726537 2.80381 0.745741 2.38268C0.763344 1.99197 0.828956 1.779 0.883367 1.63969C0.95538 1.45395 1.0434 1.31944 1.18422 1.17853C1.32505 1.03762 1.45788 0.952751 1.64511 0.877492C1.78594 0.823049 1.99878 0.757397 2.38765 0.739783C2.80853 0.720568 2.93495 0.715764 4.00395 0.715764C5.07296 0.715764 5.19938 0.720568 5.62026 0.739783C6.01073 0.757397 6.22357 0.823049 6.3628 0.877492C6.54844 0.949549 6.68286 1.03762 6.82369 1.17853C6.96451 1.31944 7.04933 1.45235 7.12454 1.63969C7.17895 1.7806 7.24457 1.99357 7.26217 2.38268C7.28137 2.80381 7.28617 2.93031 7.28617 3.99995C7.28617 5.0696 7.28137 5.1961 7.26217 5.61723C7.24457 6.00794 7.17895 6.22091 7.12454 6.36022C7.05253 6.54596 6.96451 6.68047 6.82369 6.82138C6.68286 6.96229 6.55004 7.04716 6.3628 7.12242C6.22197 7.17686 6.00913 7.24251 5.62026 7.26013C5.19938 7.27934 5.07296 7.28414 4.00395 7.28414C2.93495 7.28414 2.80853 7.27934 2.38765 7.26013C1.99718 7.24251 1.78434 7.17686 1.64511 7.12242C1.45948 7.05036 1.32505 6.96229 1.18422 6.82138C1.0434 6.68047 0.958581 6.54756 0.883367 6.36022C0.828956 6.2193 0.763344 6.00634 0.745741 5.61723C0.724937 5.1961 0.721736 5.068 0.721736 3.99995Z" fill="#626262"/>
</svg>
