<svg width="21" height="13" viewBox="0 0 21 13" fill="none" xmlns="http://www.w3.org/2000/svg">
<path d="M20.3927 5.5009L20.3928 5.5011C20.6674 6.04875 20.8069 6.65418 20.7997 7.26677H20.7997V7.26913V9.69217C20.7997 10.0675 20.6506 10.4276 20.3852 10.693C20.1197 10.9584 19.7597 11.1075 19.3843 11.1075H19.239H19.0988L19.051 11.2393C18.8952 11.6685 18.6111 12.0393 18.2372 12.3013C17.8633 12.5633 17.4179 12.7039 16.9613 12.7039C16.5047 12.7039 16.0593 12.5633 15.6854 12.3013C15.3115 12.0393 15.0274 11.6685 14.8716 11.2393L14.8238 11.1075H14.6836H6.31606H6.17643L6.12832 11.2386C5.96824 11.6747 5.67559 12.0496 5.29146 12.3108C4.90734 12.572 4.45104 12.7064 3.98666 12.6949C3.52228 12.6835 3.07316 12.5268 2.70236 12.247C2.33157 11.9672 2.05775 11.5783 1.91935 11.1349L1.88766 11.0333L1.78577 11.0029C1.32919 10.8662 0.928605 10.5865 0.643086 10.2049C0.35766 9.82348 0.202334 9.36042 0.199997 8.88401V2.42304C0.199997 1.83345 0.43421 1.26801 0.851112 0.851112C1.26801 0.43421 1.83345 0.199997 2.42304 0.199997H12.9229C13.5125 0.199997 14.0779 0.43421 14.4948 0.851112C14.9117 1.26801 15.1459 1.83345 15.1459 2.42304V2.62304H15.3459L17.5751 2.62304L17.5756 2.62304C17.995 2.62216 18.4062 2.73998 18.7615 2.96289C19.1169 3.18581 19.4019 3.50471 19.5837 3.88276L19.5837 3.88277L19.5851 3.88554L20.3927 5.5009ZM13.7306 9.89217H13.9306V9.69217V2.42304C13.9306 2.15579 13.8244 1.89948 13.6354 1.71051C13.4465 1.52153 13.1901 1.41537 12.9229 1.41537H2.42304C2.15579 1.41537 1.89948 1.52153 1.71051 1.71051C1.52153 1.89948 1.41536 2.15579 1.41536 2.42304L1.41536 8.88449L1.41537 8.88532C1.41592 9.01864 1.44292 9.15053 1.49482 9.27334C1.54671 9.39615 1.62246 9.50744 1.71767 9.60077L1.91618 9.79535L2.03758 9.54529C2.22848 9.15206 2.53107 8.82384 2.90751 8.60166C3.28395 8.37949 3.71754 8.27323 4.15405 8.29616C4.59057 8.31909 5.01063 8.4702 5.36172 8.7306C5.71281 8.99099 5.97934 9.34912 6.12799 9.76018L6.17571 9.89217H6.31606H13.7306ZM19.3843 9.89217H19.5843L17.5751 4.0384V3.83841H17.5745H15.3459H15.1459V4.0384V6.46145V8.7068V9.15886L15.4805 8.85479C15.886 8.48612 16.4135 8.28029 16.9616 8.27681C17.4199 8.27827 17.8666 8.42138 18.2405 8.68654C18.6146 8.95187 18.8975 9.32642 19.0504 9.75883L19.0975 9.89217H19.239H19.3843ZM15.973 10.3033L16.1691 10.3423L15.973 10.3033C15.9341 10.4987 15.9541 10.7013 16.0303 10.8855C16.1066 11.0696 16.2357 11.227 16.4015 11.3377C16.5672 11.4484 16.762 11.5075 16.9613 11.5075C17.2285 11.5075 17.4849 11.4014 17.6738 11.2124C17.8628 11.0234 17.969 10.7671 17.969 10.4999C17.969 10.3006 17.9099 10.1057 17.7992 9.94002C17.6884 9.7743 17.531 9.64515 17.3469 9.56888C17.1628 9.49261 16.9602 9.47265 16.7647 9.51153C16.5692 9.55042 16.3897 9.64639 16.2488 9.78731C16.1078 9.92824 16.0119 10.1078 15.973 10.3033ZM3.47857 11.3377C3.64428 11.4484 3.8391 11.5075 4.0384 11.5075C4.30566 11.5075 4.56196 11.4014 4.75094 11.2124C4.93992 11.0234 5.04608 10.7671 5.04608 10.4999C5.04608 10.3006 4.98698 10.1057 4.87626 9.94001C4.76553 9.7743 4.60815 9.64515 4.42403 9.56888C4.2399 9.49261 4.03729 9.47265 3.84182 9.51153C3.64635 9.55042 3.46679 9.64639 3.32587 9.78731C3.18494 9.92824 3.08897 10.1078 3.05009 10.3033C3.01121 10.4987 3.03116 10.7013 3.10743 10.8855C3.1837 11.0696 3.31286 11.227 3.47857 11.3377Z" fill="#626262" stroke="#191919" stroke-width="0.4"/>
</svg>
