<svg width="8" height="6" viewBox="0 0 8 6" fill="none" xmlns="http://www.w3.org/2000/svg">
<path d="M7.1779 1.46777C7.18115 1.53262 7.18115 1.59451 7.18115 1.65935C7.1844 3.62525 5.53371 5.89473 2.51503 5.89473C1.62469 5.89473 0.750609 5.66189 0 5.22568C0.129976 5.24042 0.259951 5.24631 0.389927 5.24631C1.12754 5.24631 1.84565 5.02231 2.42729 4.60673C1.72542 4.59494 1.10804 4.17936 0.893582 3.5722C1.14054 3.61641 1.39399 3.60757 1.63444 3.54567C0.870836 3.41009 0.321689 2.79999 0.31844 2.08967C0.31844 2.08378 0.31844 2.07788 0.31844 2.07199C0.545897 2.18693 0.802599 2.25178 1.06255 2.25767C0.344435 1.82146 0.120227 0.951983 0.555645 0.27114C1.39074 1.20251 2.61901 1.76546 3.93826 1.82735C3.80503 1.31156 3.987 0.769246 4.41267 0.403772C5.07229 -0.159177 6.1121 -0.129703 6.73598 0.468614C7.10316 0.403772 7.45735 0.279982 7.77903 0.106087C7.65556 0.45093 7.39886 0.74272 7.05767 0.928404C7.38261 0.893036 7.70105 0.813457 7.99999 0.695562C7.77903 0.996194 7.49959 1.25556 7.1779 1.46777Z" fill="#626262"/>
</svg>
