<svg width="365" height="372" viewBox="0 0 365 372" fill="none" xmlns="http://www.w3.org/2000/svg">
<path d="M189.328 115.227L190.309 115.329L219.036 11.7606L203.665 118.207L204.604 118.509L253.979 23.2417L217.077 124.14L217.933 124.629L285.806 41.8233L228.977 132.766L229.714 133.422L313.126 66.6981L238.846 143.707L239.43 144.502L334.742 96.7831L246.253 156.486L246.658 157.385L349.703 130.765L250.874 170.544L251.082 171.508L357.353 167.157L252.508 185.268V186.253L357.353 204.364L251.082 200.013L250.874 200.976L349.703 240.756L246.658 214.136L246.253 215.034L334.742 274.738L239.43 227.019L238.846 227.813L313.126 304.823L229.714 238.099L228.977 238.755L285.806 329.697L217.933 246.891L217.077 247.38L253.979 348.279L204.604 253.012L203.665 253.313L219.036 359.76L190.309 256.192L189.328 256.294L182.5 363.643L175.672 256.294L174.692 256.192L145.964 359.76L161.335 253.313L160.396 253.012L111.021 348.279L147.923 247.38L147.067 246.891L79.1936 329.697L136.023 238.755L135.286 238.099L51.8739 304.823L126.154 227.813L125.57 227.019L30.2584 274.738L118.747 215.034L118.342 214.136L15.2965 240.756L114.126 200.976L113.918 200.013L7.6471 204.364L112.492 186.253V185.268L7.6471 167.157L113.918 171.508L114.126 170.544L15.2965 130.765L118.342 157.385L118.747 156.486L30.2584 96.7831L125.57 144.502L126.154 143.707L51.8739 66.6982L135.286 133.422L136.023 132.766L79.1937 41.8234L147.067 124.629L147.923 124.14L111.021 23.2418L160.396 118.509L161.335 118.207L145.964 11.7606L174.692 115.329L175.672 115.227L182.5 7.87745L189.328 115.227Z" stroke="white"/>
</svg>
